<svg id="SO_Sleeper_Type_Illustration_Icons" data-name="SO Sleeper Type Illustration Icons" xmlns="http://www.w3.org/2000/svg" viewBox="0 0 58 58"><defs><style>.cls-1{fill:#ffee60;}.cls-2{fill:#000777;}.cls-3{fill:#ff4c55;}</style></defs><g id="BackPain"><circle class="cls-1" cx="29" cy="29" r="29"/><g id="Back_Illustration" data-name="Back Illustration"><path class="cls-2" d="M11.64,48.3h0a.56.56,0,0,1-.56-.56V38.53c0-4.27,0-7.36-.12-12.23a42.47,42.47,0,0,1,.32-9,7.87,7.87,0,0,1,1.43-3c1.48-1.91,3.46-2.51,5.9-3.09A5.66,5.66,0,0,0,22.86,8.1a5.69,5.69,0,0,0,.44-2.83.56.56,0,1,1,1.11-.11,6.78,6.78,0,0,1-.53,3.39,6.8,6.8,0,0,1-5,3.79c-2.22.53-4,1.06-5.27,2.68a6.77,6.77,0,0,0-1.22,2.55c-.23.95-.46,3.22-.3,8.7.15,4.89.14,8,.13,12.26l0,9.22A.55.55,0,0,1,11.64,48.3Z"/><path class="cls-2" d="M17,48.5h-.11a.55.55,0,0,1-.43-.66l1.58-7.56a31.22,31.22,0,0,0-.92-14.6A.56.56,0,0,1,17.5,25a.55.55,0,0,1,.71.35,31.84,31.84,0,0,1,.95,15.18l-1.58,7.57A.57.57,0,0,1,17,48.5Z"/><path class="cls-2" d="M46.36,48.3a.55.55,0,0,1-.55-.55l0-9.23c0-4.28,0-7.37.13-12.25.16-5.48-.07-7.75-.3-8.7A6.77,6.77,0,0,0,44.4,15c-1.25-1.62-3-2.15-5.27-2.68a6.8,6.8,0,0,1-5-3.79,6.78,6.78,0,0,1-.53-3.39.56.56,0,0,1,1.11.11,5.69,5.69,0,0,0,.44,2.83,5.66,5.66,0,0,0,4.24,3.15c2.44.58,4.42,1.18,5.9,3.09a7.87,7.87,0,0,1,1.43,3,42.47,42.47,0,0,1,.32,9c-.14,4.87-.13,8-.12,12.21v9.23a.56.56,0,0,1-.56.56Z"/><path class="cls-2" d="M41,48.5a.57.57,0,0,1-.55-.44l-1.58-7.57a31.84,31.84,0,0,1,.95-15.18A.55.55,0,0,1,40.5,25a.56.56,0,0,1,.35.71,31.14,31.14,0,0,0-.91,14.6l1.57,7.56a.55.55,0,0,1-.43.66Z"/><path class="cls-2" d="M29,47.76a.56.56,0,0,1-.56-.56V20.41a.56.56,0,0,1,1.12,0V47.2A.56.56,0,0,1,29,47.76Z"/></g><g id="Pain_Lines" data-name="Pain Lines"><g id="Right"><path class="cls-3" d="M35.92,33.45h0l-3.07-.05a.56.56,0,1,1,0-1.11l3.06,0a.56.56,0,0,1,0,1.12Z"/><path class="cls-3" d="M32.38,30.49a.56.56,0,0,1-.21-1.07L35,28.23a.56.56,0,0,1,.43,1L32.6,30.45A.57.57,0,0,1,32.38,30.49Z"/><path class="cls-3" d="M35.08,37.57a.5.5,0,0,1-.23,0l-2.78-1.27a.55.55,0,1,1,.46-1l2.79,1.27a.56.56,0,0,1-.24,1.06Z"/></g><g id="Left"><path class="cls-3" d="M22.08,33.45a.56.56,0,0,1,0-1.12l3.06,0a.59.59,0,0,1,.57.55.55.55,0,0,1-.55.56l-3.07.05Z"/><path class="cls-3" d="M25.62,30.49a.57.57,0,0,1-.22,0l-2.82-1.19a.56.56,0,0,1-.3-.73.55.55,0,0,1,.73-.3l2.82,1.19a.56.56,0,0,1-.21,1.07Z"/><path class="cls-3" d="M22.92,37.57a.56.56,0,0,1-.24-1.06l2.79-1.27a.55.55,0,1,1,.46,1l-2.78,1.27A.5.5,0,0,1,22.92,37.57Z"/></g></g></g></svg>