<svg id="SO_Sleeper_Type_Illustration_Icons" data-name="SO Sleeper Type Illustration Icons" xmlns="http://www.w3.org/2000/svg" viewBox="0 0 58 58"><defs><style>.cls-1{fill:#8cd2d3;}.cls-2{fill:#fff;}.cls-3{fill:#000777;}</style></defs><g id="BackSleepers"><circle class="cls-1" cx="29" cy="29" r="29"/><path id="Pillow_Illustration" data-name="Pillow Illustration" class="cls-2" d="M45.41,36.88H33.22a.57.57,0,0,1-.56-.56.56.56,0,0,1,.56-.56H45.41a2.94,2.94,0,0,0,2.81-3V16.09A2.94,2.94,0,0,0,45.41,13H12.6a3,3,0,0,0-2.82,3.05V32.72a3,3,0,0,0,2.82,3H25.31a.56.56,0,0,1,.56.56.57.57,0,0,1-.56.56H12.6a4.06,4.06,0,0,1-3.94-4.16V16.09a4.07,4.07,0,0,1,3.94-4.17H45.41a4.06,4.06,0,0,1,3.93,4.17V32.72A4.05,4.05,0,0,1,45.41,36.88Z"/><g id="Back_Sleeper_Illustration" data-name="Back Sleeper Illustration"><path class="cls-3" d="M25.32,27.47a2.91,2.91,0,0,0,1.82-.64.56.56,0,0,0,.1-.79.57.57,0,0,0-.78-.1,2,2,0,0,1-2.41,0,.55.55,0,0,0-.78.11.56.56,0,0,0,.11.78A3.33,3.33,0,0,0,25.32,27.47Z"/><path class="cls-3" d="M35,26.83a.56.56,0,0,0,.1-.79.58.58,0,0,0-.79-.1,2,2,0,0,1-2.4,0,.55.55,0,0,0-.78.11.56.56,0,0,0,.11.78,3.3,3.3,0,0,0,1.94.64A2.93,2.93,0,0,0,35,26.83Z"/><path class="cls-3" d="M28.66,26.12a.55.55,0,0,0-.64.46l-.35,2A1.41,1.41,0,0,0,28,29.78a1.43,1.43,0,0,0,1.11.52h1.19a.56.56,0,0,0,0-1.12H29.1a.32.32,0,0,1-.26-.12.3.3,0,0,1-.07-.27l.35-2A.56.56,0,0,0,28.66,26.12Z"/><path class="cls-3" d="M29.18,33.52a5.23,5.23,0,0,0,1.92-.39.56.56,0,0,0-.41-1,3,3,0,0,1-2.67,0,.56.56,0,0,0-.62.93A3.29,3.29,0,0,0,29.18,33.52Z"/><path class="cls-3" d="M23.87,25.24a3.33,3.33,0,0,1,2.82-.55.57.57,0,0,0,.66-.45.56.56,0,0,0-.44-.65,4.42,4.42,0,0,0-3.81.84.56.56,0,0,0,0,.79.58.58,0,0,0,.41.17A.55.55,0,0,0,23.87,25.24Z"/><path class="cls-3" d="M35.27,24.43a4.39,4.39,0,0,0-3.8-.84.56.56,0,1,0,.21,1.1,3.31,3.31,0,0,1,2.82.55.57.57,0,0,0,.38.15.58.58,0,0,0,.41-.17A.56.56,0,0,0,35.27,24.43Z"/><path class="cls-3" d="M20.45,23.15a10.22,10.22,0,0,0,1.58.11,26.87,26.87,0,0,0,8.47-1.81.57.57,0,0,0,.31-.73.56.56,0,0,0-.73-.31S24.49,22.62,20.61,22a.56.56,0,1,0-.16,1.11Z"/><path class="cls-3" d="M48,46.58H45.74c-.12-.57-.21-1-.25-1.18a7.16,7.16,0,0,0-1.31-2.74c-1.45-1.87-3.56-2.39-5.44-2.85-.36-.08-.76-.15-1.18-.22a9.5,9.5,0,0,1-3.26-1,1.83,1.83,0,0,1-.77-.85,5,5,0,0,1-.39-1.87,8.57,8.57,0,0,0,4.48-6.13,2.68,2.68,0,0,0,.08-5.29c0-.26-.07-.53-.12-.79a.55.55,0,0,0-.66-.43.56.56,0,0,0-.44.66,7.57,7.57,0,0,1,.16,1.5v2.89A7.46,7.46,0,0,1,32.38,35l-.09,0a7.33,7.33,0,0,1-3.1.69A7.45,7.45,0,0,1,26,35h0a7.45,7.45,0,0,1-4.26-6.72V25.42a7.81,7.81,0,0,1,.11-1.28.56.56,0,0,0-1.1-.19c0,.17-.05.34-.07.51a2.67,2.67,0,0,0,.08,5.33,8.6,8.6,0,0,0,4.49,6.12,4.93,4.93,0,0,1-.42,1.87,1.75,1.75,0,0,1-.76.84,9.79,9.79,0,0,1-3.26,1c-.42.07-.82.14-1.19.23-1.87.46-4,1-5.41,2.83A6.88,6.88,0,0,0,12.9,45.4c-.05.2-.14.61-.25,1.18h-2a.56.56,0,0,0,0,1.12H48a.56.56,0,1,0,0-1.12ZM38.77,27.12a1.56,1.56,0,0,1-1,1.47c0-.09,0-.19,0-.28V25.66A1.55,1.55,0,0,1,38.77,27.12Zm-19.38,0a1.57,1.57,0,0,1,1.23-1.53v2.72c0,.12,0,.23,0,.35A1.58,1.58,0,0,1,19.39,27.12Zm5.27,12.45a2.91,2.91,0,0,0,1.2-1.34,6.09,6.09,0,0,0,.48-1.85,8.34,8.34,0,0,0,5.69,0,5.87,5.87,0,0,0,.47,1.84,3,3,0,0,0,1.2,1.35,6,6,0,0,0,1.48.63,7.11,7.11,0,0,1-12,0A5.81,5.81,0,0,0,24.66,39.57ZM14,45.65a5.89,5.89,0,0,1,1.1-2.31c1.19-1.55,2.94-2,4.78-2.43.35-.08.73-.15,1.13-.22l1.07-.2a8.22,8.22,0,0,0,14.24,0l1.06.2,1.12.21c1.85.46,3.6.88,4.8,2.44a6.1,6.1,0,0,1,1.11,2.31c0,.17.11.49.2.93H13.79C13.88,46.14,14,45.82,14,45.65Z"/><path class="cls-3" d="M20.67,21.14a8.4,8.4,0,0,0,1,.06,31.89,31.89,0,0,0,7.69-1.42.56.56,0,0,0,.37-.7.57.57,0,0,0-.71-.37c-.05,0-5.37,1.68-8.24,1.32a.56.56,0,0,0-.63.49A.55.55,0,0,0,20.67,21.14Z"/><path class="cls-3" d="M36.52,22.77a.56.56,0,0,0,.12-1.1,15.79,15.79,0,0,1-5.55-2.85.57.57,0,0,0-.79.06.56.56,0,0,0,.07.79,16.5,16.5,0,0,0,6,3.09Z"/><path class="cls-3" d="M21.39,19.15q.38,0,.75,0a17.58,17.58,0,0,0,7.12-1.63.56.56,0,1,0-.49-1A16.53,16.53,0,0,1,21.45,18a.56.56,0,1,0-.06,1.11Z"/><path class="cls-3" d="M37.39,20.79h.09a.55.55,0,0,0,.55-.47.56.56,0,0,0-.46-.64c-3-.48-6.63-3.13-6.67-3.15a.55.55,0,0,0-.78.12.56.56,0,0,0,.12.78C30.4,17.56,34.16,20.27,37.39,20.79Z"/></g></g></svg>