<svg id="SO_Sleeper_Type_Illustration_Icons" data-name="SO Sleeper Type Illustration Icons" xmlns="http://www.w3.org/2000/svg" viewBox="0 0 58 58"><defs><style>.cls-1{fill:#ec9cd8;}.cls-2{fill:#000777;}.cls-3{fill:#fff;}</style></defs><g id="Couples"><circle class="cls-1" cx="29" cy="29" r="29"/><path id="Couples_Illustration" data-name="Couples Illustration" class="cls-2" d="M41.52,19.34a6.65,6.65,0,0,0-4.88,2.14,6.65,6.65,0,0,0-4.88-2.14,6.79,6.79,0,0,0-2.67.56,6.76,6.76,0,0,0-2.67-.56,6.61,6.61,0,0,0-4.88,2.14,6.62,6.62,0,0,0-4.88-2.14A6.71,6.71,0,0,0,10,26a10.35,10.35,0,0,0,.09,1.12,6.92,6.92,0,0,0,.43,1.54,11.57,11.57,0,0,0,.6,1.35A17,17,0,0,0,12,31.53c.36.55.75,1.09,1.15,1.61s1,1.15,1.46,1.7,1.16,1.2,1.77,1.78,1.38,1.25,2.1,1.83,1.61,1.28,2.44,1.88l.31.22a.76.76,0,0,0,.37.1.64.64,0,0,0,.33-.1,39.79,39.79,0,0,0,7.19-6.37,40.56,40.56,0,0,0,7.21,6.37.7.7,0,0,0,.38.1.53.53,0,0,0,.32-.1c.58-.41,1.14-.82,1.7-1.25s1-.82,1.54-1.25.93-.8,1.39-1.22.83-.79,1.24-1.2.74-.77,1.09-1.16.65-.75,1-1.14.56-.71.83-1.08.47-.69.7-1,.39-.65.57-1,.31-.61.45-.92.24-.57.34-.86.16-.52.23-.78.09-.54.13-.82a5.25,5.25,0,0,0,.06-.79A6.71,6.71,0,0,0,41.52,19.34Zm-20,20.06q-1.26-.9-2.46-1.89c-.72-.6-1.42-1.21-2.1-1.85s-1.18-1.17-1.74-1.78-1-1.11-1.41-1.69a19,19,0,0,1-1.1-1.56,13.87,13.87,0,0,1-.8-1.41A9.38,9.38,0,0,1,11.42,28a5,5,0,0,1-.24-1,7.14,7.14,0,0,1-.09-.93,5.56,5.56,0,0,1,10-3.34.53.53,0,0,0,.45.23A.56.56,0,0,0,22,22.7a5.55,5.55,0,0,1,4.43-2.22,5.86,5.86,0,0,1,1.38.17,6.7,6.7,0,0,0-2.74,5.4,6.09,6.09,0,0,0,.09,1,.49.49,0,0,0,0,.12l0,.12,0,.14a14.66,14.66,0,0,0,3.13,5.86A38.57,38.57,0,0,1,21.54,39.4ZM47,27a6.11,6.11,0,0,1-.17.74c-.08.26-.17.53-.27.78s-.25.58-.4.87-.33.63-.52.94-.42.68-.65,1-.52.72-.79,1.06-.61.76-.93,1.12-.71.79-1.08,1.17-.81.81-1.23,1.2-.91.83-1.38,1.23-1,.85-1.55,1.26l-.68.51-.35.26a2.59,2.59,0,0,1-.36.27c-6.81-4.9-9.81-9.62-10.34-12.28a.71.71,0,0,0,0-.14,6.67,6.67,0,0,1-.09-.94,5.55,5.55,0,0,1,10-3.34.59.59,0,0,0,.9,0,5.52,5.52,0,0,1,4.43-2.23,5.58,5.58,0,0,1,5.57,5.57A5,5,0,0,1,47,27Z"/><g id="Highlights"><path class="cls-3" d="M39.68,13.93a1.68,1.68,0,1,1,1.67-1.67A1.67,1.67,0,0,1,39.68,13.93Zm0-2.23a.56.56,0,1,0,.56.56A.56.56,0,0,0,39.68,11.7Z"/><path class="cls-3" d="M9,39.61a2,2,0,1,1,2-2A2,2,0,0,1,9,39.61Zm0-2.89a.89.89,0,1,0,.88.88A.89.89,0,0,0,9,36.72Z"/><path class="cls-3" d="M50.94,36.72a1.79,1.79,0,1,1,1.79-1.79A1.79,1.79,0,0,1,50.94,36.72Zm0-2.47a.69.69,0,0,0-.68.68.68.68,0,0,0,.68.67.67.67,0,0,0,.67-.67A.68.68,0,0,0,50.94,34.25Z"/><path class="cls-3" d="M34.81,46.32h-1v-1a.56.56,0,0,0-1.12,0v1h-1a.56.56,0,0,0,0,1.12h1v1a.56.56,0,0,0,1.12,0v-1h1a.56.56,0,1,0,0-1.12Z"/><path class="cls-3" d="M17.34,12.34h-1v-1a.56.56,0,0,0-1.12,0v1h-1a.56.56,0,1,0,0,1.11h1v1a.56.56,0,1,0,1.12,0v-1h1a.56.56,0,0,0,0-1.11Z"/></g></g></svg>