<svg xmlns="http://www.w3.org/2000/svg" viewBox="0 0 42 42"><defs><style>.cls-1{fill:none;}.cls-2{fill:#7ee4bb;}.cls-3{fill:#000777;}</style></defs><g id="Background_Squares" data-name="Background Squares"><rect class="cls-1" x="-0.06" width="42" height="42"/><rect class="cls-1" x="-0.06" width="42" height="42"/></g><g id="Icons"><circle class="cls-2" cx="21" cy="21" r="20.3"/><path class="cls-3" d="M16.42,23.09l.22.19h8.72l.22-.19A7,7,0,0,0,24.86,12c0-.13,0-.26,0-.39a3.88,3.88,0,1,0-7.76,0c0,.13,0,.26,0,.39a7,7,0,0,0-.72,11.07ZM21,9.3a2.35,2.35,0,0,1,2.3,1.94,7.15,7.15,0,0,0-4.6,0A2.35,2.35,0,0,1,21,9.3Z"/><path class="cls-3" d="M31.92,24.93H10.08a2.34,2.34,0,0,0-2.33,2.33v4.66a2.34,2.34,0,0,0,2.33,2.33H31.92a2.34,2.34,0,0,0,2.33-2.33V27.26A2.34,2.34,0,0,0,31.92,24.93ZM12.46,31.14H10.91V28h1.55Zm3.11,0H14V28h1.56Zm3.1,0H17.12V28h1.55Zm3.11,0H20.22V28h1.56Zm3.1,0H23.33V28h1.55Zm3.11,0H26.43V28H28Zm3.1,0H29.54V28h1.55Z"/></g></svg>