<svg id="SO_Sleeper_Type_Illustration_Icons" data-name="SO Sleeper Type Illustration Icons" xmlns="http://www.w3.org/2000/svg" viewBox="0 0 58 58"><defs><style>.cls-1{fill:#ffee60;}.cls-2{fill:#000777;}.cls-3{fill:#ff4c55;}.cls-4{fill:#fff;}</style></defs><g id="HipPain"><circle class="cls-1" cx="29" cy="29" r="29"/><g id="Hip_Illustration" data-name="Hip Illustration"><path class="cls-2" d="M48.69,31.67a3,3,0,0,0-2.81-2.51h0l0-.09a8.22,8.22,0,0,0,0-6.68,8.81,8.81,0,0,0-3.55-4,4.83,4.83,0,0,0-5.57.37c-1.51,1.26-3,2.57-4.33,3.73a2.43,2.43,0,0,1-1.65.63H27.11a1.78,1.78,0,0,1-1.23-.41l-.1-.08-.22-.18-.17-.14-.18-.16c-.29-.24-.57-.49-.86-.75l-.4-.34-.75-.65-1.91-1.64a4.86,4.86,0,0,0-5.58-.37,8.6,8.6,0,0,0-2.88,2.77,8.15,8.15,0,0,0-.67,8v0a1.76,1.76,0,0,0-.39.06,3.07,3.07,0,0,0-2,4.65,22.72,22.72,0,0,1,1.42,2.69,18.16,18.16,0,0,1,1.51,7.07V46.5a.53.53,0,0,0,1.05,0V43.69a19.62,19.62,0,0,0-2.57-9.49A1,1,0,0,0,11,34a2.75,2.75,0,0,0-.15-.25l-.13-.23a3.47,3.47,0,0,1-.21-.37,2,2,0,0,1-.09-1.76,2,2,0,0,1,1.34-1.16,1.84,1.84,0,0,1,1.3.09,2.26,2.26,0,0,0,3-1.09A1.56,1.56,0,0,1,18.76,29l.18.23a13.24,13.24,0,0,1,1,1.32A2.36,2.36,0,0,1,20,33.12a24.85,24.85,0,0,0-2.33,5.58,23.52,23.52,0,0,0-.83,6.35v1.44a.53.53,0,0,0,.53.53.53.53,0,0,0,.52-.51h0v0a26.24,26.24,0,0,1,.59-6.63l.07-.29.06-.22a4.36,4.36,0,0,0,1,2.63,5.15,5.15,0,0,0,5.63,1.56,4.71,4.71,0,0,0,3.26-4.21c0-.75,0-1.47,0-2.13a1.36,1.36,0,0,0-.92-1.32,2,2,0,0,0-.81-.14h0c-.82,0-1.68,0-2.54,0A1.57,1.57,0,0,1,23,35l-.89-1.21-.22-.29-.53-.69a.22.22,0,0,1,0-.19,3.44,3.44,0,0,0-.19-2.23c0-.08,0-.08,0-.13A1.7,1.7,0,0,1,22.58,30a1.5,1.5,0,0,1,1,.78l.36.69.36.7.35.68a2.61,2.61,0,0,0,2.38,1.49c1.26,0,2.52,0,3.74,0h.06a2.65,2.65,0,0,0,2.44-1.51l.25-.48c.24-.44.54-1,.8-1.54a1.56,1.56,0,0,1,1-.81,1.71,1.71,0,0,1,1.43.29c.11.08.1.1.06.19a3.52,3.52,0,0,0-.19,2.2.41.41,0,0,1,0,.14c-.55.75-1.13,1.55-1.74,2.33a1.43,1.43,0,0,1-1.12.56h0l-.76,0H31a1.49,1.49,0,0,0-1.56,1.6c0,.29,0,.6,0,.89v.9a4.33,4.33,0,0,0,.68,2.38A5.11,5.11,0,0,0,36,43.57a4.72,4.72,0,0,0,3.4-4.28A19,19,0,0,1,40,43.22c.06.91.07,1.82.08,2.71v.57a.52.52,0,0,0,.52.52.52.52,0,0,0,.53-.52v-.8c0-.78,0-1.49,0-2.2a20,20,0,0,0-.65-4.33,23.83,23.83,0,0,0-2-5.34l-.11-.19a2,2,0,0,0-.11-.2c-.07-.11-.13-.22-.19-.33a2.44,2.44,0,0,1,.17-2.77c.38-.53.8-1,1.12-1.39a1.58,1.58,0,0,1,1.23-.6h.17a1.63,1.63,0,0,1,1.25.93,2.18,2.18,0,0,0,2.82,1.09,2.14,2.14,0,0,1,1.13-.15,1.83,1.83,0,0,1,1.27.71,2.05,2.05,0,0,1,.31,2.13,3.47,3.47,0,0,1-.26.45l-.1.16a19,19,0,0,0-1.84,4c0,.07,0,.15-.08.23l-.06.19a17.25,17.25,0,0,0-.51,2.19,38.09,38.09,0,0,0-.37,5.93v.28a.55.55,0,0,0,.55.55.55.55,0,0,0,.55-.55V44.17a19.87,19.87,0,0,1,.3-3.64,18.67,18.67,0,0,1,2.44-6.36A3.4,3.4,0,0,0,48.69,31.67Zm-15.4-1.09h0c-.22.45-.47.91-.67,1.28l-.24.47a1.66,1.66,0,0,1-1.53.94c-1.46,0-2.65,0-3.75,0a1.49,1.49,0,0,1-1.37-.79c-.36-.64-.7-1.28-1.06-2a.42.42,0,0,1,0-.25c.14-.73.29-1.48.43-2.19l.06-.27c.05-.26.1-.52.16-.78l.15-.76c.05-.22.09-.44.13-.66s.08-.43.13-.65l.15-.85a.75.75,0,0,0,0-.16h0a3.93,3.93,0,0,0,1.57.22h3a3.75,3.75,0,0,0,1.6-.22s0,0,0,.07c.18.94.37,1.88.56,2.83L33,28.64v0c0,.14.06.29.08.44.07.33.15.72.21,1.12A.64.64,0,0,1,33.29,30.58ZM33,23.41c0-.08,0-.13.08-.2l1.12-1,1.12-1,1.13-1,.44-.38.41-.36a3.84,3.84,0,0,1,4.31-.38,7.55,7.55,0,0,1,3.81,5.38,7.12,7.12,0,0,1-.71,4.52h0a.55.55,0,0,1-.37.31,1.16,1.16,0,0,1-1.48-.62,2.57,2.57,0,0,0-2.38-1.49h-.17a2.55,2.55,0,0,0-1.93,1l-.85,1a.21.21,0,0,1-.06.08,2.89,2.89,0,0,0-1.67-.58,2.92,2.92,0,0,0-1.58.51l-.3-1.51-.33-1.7c-.12-.59-.24-1.19-.35-1.79v0C33.17,24.07,33.1,23.74,33,23.41Zm-9.24,6a2.68,2.68,0,0,0-3.25.06l-.08-.09L20.11,29c-.21-.27-.43-.55-.68-.82a2.63,2.63,0,0,0-1.93-.87l-.34,0a2.61,2.61,0,0,0-2,1.42,1.23,1.23,0,0,1-.82.71,1.19,1.19,0,0,1-.93-.12s-.05,0-.12-.17a7,7,0,0,1-.76-2.24,7.21,7.21,0,0,1,.24-3.33,7.72,7.72,0,0,1,2.86-3.93,4.23,4.23,0,0,1,1.83-.88,5.73,5.73,0,0,1,.81-.06,3.52,3.52,0,0,1,2.37.85c1,.83,2,1.7,2.67,2.28l1.16,1,.12.11.17.14.17.14s.06.06,0,.15l-.81,4h0l-.12.63-.12.65Zm-4.15,9.73A1.73,1.73,0,0,0,19.2,38c-.11-.13-.12-.24,0-.46a22,22,0,0,1,1.67-3.68c.08.09.15.19.22.28v0l.25.33c.23.31.44.59.64.9a2.9,2.9,0,0,0,2,1.32,2,2,0,0,0,.53,0h2.39c.56,0,.71.15.71.7v1.64a3.79,3.79,0,0,1-3.44,3.7,4.13,4.13,0,0,1-3-.76A3.43,3.43,0,0,1,19.63,39.15Zm19.23-1.28a.12.12,0,0,0-.06.06l0,0a1.88,1.88,0,0,0-.42,1.19,3.85,3.85,0,0,1-3.56,3.62,4,4,0,0,1-4.11-2.46,4.19,4.19,0,0,1-.22-1.17c0-.37,0-.76,0-1.14v-.7a.52.52,0,0,1,.58-.58h.79c.49,0,1,0,1.52,0a3,3,0,0,0,2.71-1.41c.19-.28.39-.55.6-.82l.21-.28.31-.4a25.46,25.46,0,0,1,1.7,3.79h0C38.92,37.75,38.91,37.8,38.86,37.87Z"/><path class="cls-2" d="M26.75,20.57h4.53A1.51,1.51,0,0,0,32.89,19v-.77A1.55,1.55,0,0,0,32.47,17a1.47,1.47,0,0,0-1.07-.44H26.57a1.45,1.45,0,0,0-1.46,1.48V19A1.51,1.51,0,0,0,26.75,20.57Zm5.13-2.5c0,.31,0,.64,0,1a.48.48,0,0,1-.52.5H26.71c-.43,0-.59-.18-.6-.6v-.8a.51.51,0,0,1,.56-.57h4.11c.22,0,.42,0,.61,0h0A.45.45,0,0,1,31.88,18.07Z"/><path class="cls-2" d="M26.75,10.9h4.53a1.5,1.5,0,0,0,1.61-1.62V8.51a1.52,1.52,0,0,0-.42-1.15,1.49,1.49,0,0,0-1.09-.44H26.57a1.44,1.44,0,0,0-1.46,1.48v.88A1.52,1.52,0,0,0,26.75,10.9Zm4-3,.63,0a.47.47,0,0,1,.47.47c0,.31,0,.63,0,1a.47.47,0,0,1-.52.49H26.71c-.43,0-.59-.17-.6-.59v-.8a.51.51,0,0,1,.56-.57Z"/><path class="cls-2" d="M26.75,15.74h4.53a1.51,1.51,0,0,0,1.61-1.63v-.76a1.55,1.55,0,0,0-.42-1.16,1.53,1.53,0,0,0-1.12-.43H26.57a1.43,1.43,0,0,0-1.46,1.47v.89A1.52,1.52,0,0,0,26.75,15.74Zm5.13-1.53a.47.47,0,0,1-.52.49H26.71c-.43,0-.59-.17-.6-.6v-.8a.51.51,0,0,1,.56-.56h4.11l.61,0h0a.46.46,0,0,1,.47.47C31.89,13.55,31.89,13.87,31.88,14.21Z"/></g><g id="Pain_Lines" data-name="Pain Lines"><g id="Right"><path class="cls-3" d="M50.31,26.72a.55.55,0,0,1-.53-.38.56.56,0,0,1,.35-.71L54,24.34a.55.55,0,0,1,.7.35.56.56,0,0,1-.35.71l-3.91,1.29A.51.51,0,0,1,50.31,26.72Z"/><path class="cls-3" d="M48.41,23.24a.56.56,0,0,1-.41-.19.56.56,0,0,1,0-.79l3.06-2.75a.56.56,0,0,1,.79,0,.57.57,0,0,1,0,.79l-3.05,2.75A.55.55,0,0,1,48.41,23.24Z"/><path class="cls-3" d="M55,31h0l-4.1-.39a.56.56,0,0,1,.1-1.11l4.1.39a.55.55,0,0,1,.5.61A.55.55,0,0,1,55,31Z"/></g><g id="Left"><path class="cls-3" d="M7.69,26.72l-.17,0L3.61,25.4a.56.56,0,0,1-.35-.71.55.55,0,0,1,.7-.35l3.91,1.29a.56.56,0,0,1,.35.71A.55.55,0,0,1,7.69,26.72Z"/><path class="cls-3" d="M9.59,23.24a.55.55,0,0,1-.38-.15L6.16,20.34a.57.57,0,0,1,0-.79.56.56,0,0,1,.79,0L10,22.26a.56.56,0,0,1,0,.79A.56.56,0,0,1,9.59,23.24Z"/><path class="cls-3" d="M3,31a.55.55,0,0,1-.55-.5.55.55,0,0,1,.5-.61l4.1-.39a.55.55,0,0,1,.6.51.54.54,0,0,1-.5.6L3.08,31Z"/></g></g><path id="Highlight" class="cls-4" d="M14.3,24.92h-.08a.56.56,0,0,1-.48-.62A6,6,0,0,1,17,20.08a.56.56,0,1,1,.53,1,4.92,4.92,0,0,0-2.68,3.37A.57.57,0,0,1,14.3,24.92Z"/></g></svg>