<svg id="SO_Sleeper_Type_Illustration_Icons" data-name="SO Sleeper Type Illustration Icons" xmlns="http://www.w3.org/2000/svg" viewBox="0 0 58 58"><defs><style>.cls-1{fill:#fdcc80;}.cls-2{fill:#000777;}.cls-3{fill:#ff4c55;}.cls-4{fill:#fff;}</style></defs><g id="HotSleepers"><circle class="cls-1" cx="29" cy="29" r="29"/><g id="Thermometer_Illustration" data-name="Thermometer Illustration"><path id="Thermometer_Outline" data-name="Thermometer Outline" class="cls-2" d="M29,47.34A7.41,7.41,0,0,1,25.9,33.22V15.59a3.14,3.14,0,1,1,6.27,0V33.22A7.41,7.41,0,0,1,29,47.34Zm0-33.77a2,2,0,0,0-2,2v18a.56.56,0,0,1-.34.52,6.29,6.29,0,1,0,4.74,0,.57.57,0,0,1-.35-.52v-18A2,2,0,0,0,29,13.57Z"/><path class="cls-3" d="M29.59,36.44V20.69a.56.56,0,1,0-1.11,0V36.44a3.8,3.8,0,1,0,1.11,0Z"/><g id="Tick_Marks" data-name="Tick Marks"><path class="cls-2" d="M37.64,18.47h-3.5a.56.56,0,0,1,0-1.11h3.5a.56.56,0,1,1,0,1.11Z"/><path class="cls-2" d="M36.5,21.41H34.14a.55.55,0,0,1-.55-.55.56.56,0,0,1,.55-.56H36.5a.55.55,0,0,1,.55.56A.54.54,0,0,1,36.5,21.41Z"/><path class="cls-2" d="M37.64,24.36h-3.5a.56.56,0,0,1,0-1.12h3.5a.56.56,0,0,1,0,1.12Z"/><path class="cls-2" d="M36.5,27.3H34.14a.56.56,0,0,1,0-1.12H36.5a.56.56,0,0,1,0,1.12Z"/><path class="cls-2" d="M37.64,30.24h-3.5a.56.56,0,0,1,0-1.12h3.5a.56.56,0,1,1,0,1.12Z"/></g></g><g id="Highlights"><path class="cls-4" d="M50.05,32.6H48.16V30.71a.42.42,0,1,0-.84,0V32.6H45.43a.42.42,0,0,0,0,.84h1.89v1.9a.42.42,0,0,0,.84,0v-1.9h1.89a.42.42,0,0,0,0-.84Z"/><path class="cls-4" d="M15.05,35.13H12.94V33a.42.42,0,0,0-.84,0v2.11H10A.42.42,0,0,0,10,36H12.1v2.12a.42.42,0,0,0,.84,0V36h2.11a.42.42,0,0,0,0-.84Z"/><path class="cls-4" d="M16.94,14.15H15.8V13A.42.42,0,0,0,15,13v1.14H13.82a.42.42,0,0,0,0,.84H15v1.14a.42.42,0,0,0,.84,0V15h1.14a.42.42,0,0,0,0-.84Z"/></g></g></svg>