<svg id="SO_Sleeper_Type_Illustration_Icons" data-name="SO Sleeper Type Illustration Icons" xmlns="http://www.w3.org/2000/svg" viewBox="0 0 58.29 58.29"><defs><style>.cls-1{fill:#ffee60;}.cls-2{fill:#000777;}.cls-3{fill:#fff;}.cls-4{fill:#ff4c55;}</style></defs><g id="JointPain"><circle class="cls-1" cx="29.14" cy="29.14" r="29.14"/><g id="Joint_Illustration" data-name="Joint Illustration"><path class="cls-2" d="M6,41a.56.56,0,0,1-.16-1.09l8.88-2.61.11,0a8,8,0,0,1,3.78-.15,12.48,12.48,0,0,1,2.93,1,1.56,1.56,0,0,1,.33.14l.38.13a3.87,3.87,0,0,0,.68.12,4,4,0,0,0,2.19-7.42.55.55,0,0,1-.27-.33.58.58,0,0,1,0-.43,3.93,3.93,0,0,0,.34-3,4,4,0,0,0-4.92-2.69,3.89,3.89,0,0,0-1.37.74,4.56,4.56,0,0,0-1,1.26A10.45,10.45,0,0,1,16.05,29a7.7,7.7,0,0,1-3,1.73L4,33.37a.56.56,0,1,1-.32-1.08l9.07-2.65a6.69,6.69,0,0,0,2.59-1.49A9.47,9.47,0,0,0,17,26.06a5.77,5.77,0,0,1,1.26-1.54A5,5,0,0,1,20,23.57a5.08,5.08,0,0,1,6.11,6.84,5.07,5.07,0,0,1-1.46,9.05,4.66,4.66,0,0,1-1.82.18,4.4,4.4,0,0,1-.87-.15l-.42-.13-.17-.08-.09,0-.15-.05a11,11,0,0,0-2.73-1,6.77,6.77,0,0,0-3.18.11l-.15,0L6.19,41A.39.39,0,0,1,6,41Z"/><path class="cls-2" d="M52.25,41a.39.39,0,0,1-.15,0L43,38.32a6.77,6.77,0,0,0-3.18-.11,11,11,0,0,0-2.73,1l-.15.05-.09,0-.17.08-.42.13a4.4,4.4,0,0,1-.87.15,4.73,4.73,0,0,1-1.83-.18,5.08,5.08,0,0,1-1.45-9A5.07,5.07,0,0,1,40,24.52a5.77,5.77,0,0,1,1.26,1.54A9.47,9.47,0,0,0,43,28.15a6.73,6.73,0,0,0,2.58,1.49l9.08,2.65A.58.58,0,0,1,55,33a.56.56,0,0,1-.7.38l-9.07-2.66a7.7,7.7,0,0,1-3-1.73,10.45,10.45,0,0,1-1.91-2.34,4.72,4.72,0,0,0-1-1.26,3.85,3.85,0,0,0-1.38-.74,4,4,0,0,0-4.58,5.71.54.54,0,0,1,0,.43.55.55,0,0,1-.27.33,4,4,0,0,0,2.19,7.42,3.87,3.87,0,0,0,.68-.12l.33-.11a3.2,3.2,0,0,1,.37-.15,12.13,12.13,0,0,1,2.94-1,8,8,0,0,1,3.71.13l.18,0,8.88,2.61A.56.56,0,0,1,52.25,41Z"/></g><g id="Highlights"><path class="cls-3" d="M23.41,28.26a.57.57,0,0,1-.54-.4,1.08,1.08,0,0,0-.53-.67,1.12,1.12,0,0,0-.86-.09.55.55,0,0,1-.69-.38.56.56,0,0,1,.38-.7,2.24,2.24,0,0,1,1.7.19A2.2,2.2,0,0,1,24,27.54a.57.57,0,0,1-.38.7Z"/><path class="cls-3" d="M34.15,37,34,37a2.25,2.25,0,0,1-1.56-2.76.56.56,0,0,1,1.08.3,1.14,1.14,0,0,0,.1.85,1.13,1.13,0,0,0,.68.53.56.56,0,0,1-.15,1.1Z"/></g><g id="Pain_Lines" data-name="Pain Lines"><path class="cls-4" d="M29.18,19a.56.56,0,0,1-.56-.56v-4.8a.56.56,0,0,1,.56-.56h0a.56.56,0,0,1,.56.56v4.8a.56.56,0,0,1-.56.56Z"/><path class="cls-4" d="M24.64,19.84a.57.57,0,0,1-.52-.33l-1.94-4.39a.56.56,0,0,1,.29-.74.54.54,0,0,1,.73.29l1.95,4.38a.56.56,0,0,1-.29.74A.59.59,0,0,1,24.64,19.84Z"/><path class="cls-4" d="M33.73,19.81a.44.44,0,0,1-.22,0,.56.56,0,0,1-.29-.73l1.92-4.4a.54.54,0,0,1,.73-.29.55.55,0,0,1,.29.74l-1.91,4.39A.57.57,0,0,1,33.73,19.81Z"/></g></g></svg>