<svg xmlns="http://www.w3.org/2000/svg" viewBox="0 0 42 42"><defs><style>.cls-1{fill:none;}.cls-2{fill:#fedba6;}.cls-3{fill:#000777;}</style></defs><g id="Background_Squares" data-name="Background Squares"><rect class="cls-1" width="42" height="42"/></g><g id="Icons"><circle class="cls-2" cx="21" cy="21" r="20.3"/><path class="cls-3" d="M31.91,21.86H10.09a2.32,2.32,0,0,0-2.32,2.32v4.66a2.32,2.32,0,0,0,2.32,2.32H31.91a2.32,2.32,0,0,0,2.32-2.32V24.18A2.32,2.32,0,0,0,31.91,21.86Zm-19.49,6.2H10.87V25h1.55Zm3.1,0H14V25h1.55Zm3.1,0H17.07V25h1.55Zm3.1,0H20.17V25h1.55Zm3.1,0H23.27V25h1.55Zm3.11,0H26.38V25h1.55Zm3.2,0H29.58V25h1.55Z"/><path class="cls-3" d="M7.77,18.76H34.23v1.55H7.77Z"/><path class="cls-3" d="M7.77,15.66H34.23v1.55H7.77Z"/><path class="cls-3" d="M19,14c.67,0,1.33,0,2,0a51.44,51.44,0,0,0,12.5-1.55l.75-.19-.37-1.5-.76.19A49.39,49.39,0,0,1,8.89,11l-.76-.19-.37,1.5.75.19A52,52,0,0,0,19,14Z"/></g></svg>