<svg xmlns="http://www.w3.org/2000/svg" viewBox="0 0 42 42"><defs><style>.cls-1{fill:none;}.cls-2{fill:#9fcfff;}.cls-3{fill:#000777;}</style></defs><g id="Background_Squares" data-name="Background Squares"><rect class="cls-1" x="-0.06" width="42" height="42"/><rect class="cls-1" x="-0.06" width="42" height="42"/></g><g id="Icons"><circle class="cls-2" cx="21" cy="21" r="20.3"/><g id="_09-timer" data-name=" 09-timer"><path class="cls-3" d="M29,15.64l1.59-1.59-1.56-1.56-1.7,1.7a11,11,0,0,0-5.25-2V10h2.21V7.75H17.69V10H19.9v2.26a11,11,0,0,0-5.25,2L13,12.49l-1.56,1.56L13,15.64a11,11,0,1,0,16,0ZM21,32a8.83,8.83,0,1,1,8.83-8.83A8.83,8.83,0,0,1,21,32Z"/><path class="cls-3" d="M21,16.58V23.2H14.38A6.62,6.62,0,1,0,21,16.58Z"/></g></g></svg>