<svg id="SO_Sleeper_Type_Illustration_Icons" data-name="SO Sleeper Type Illustration Icons" xmlns="http://www.w3.org/2000/svg" viewBox="0 0 58 58"><defs><style>.cls-1{fill:#9fcfff;}.cls-2{fill:#000777;}.cls-3{fill:#fff;}</style></defs><g id="Seniors"><circle class="cls-1" cx="29" cy="29" r="29"/><g id="Seniors_Illustration" data-name="Seniors Illustration"><g id="Face"><path class="cls-2" d="M31.28,28.71a.62.62,0,0,0-.81-.35,3.4,3.4,0,0,1-2.94.06.61.61,0,0,0-.85.17.6.6,0,0,0,.17.85,3.69,3.69,0,0,0,2,.49,5.69,5.69,0,0,0,2.11-.42A.63.63,0,0,0,31.28,28.71Z"/><path class="cls-2" d="M27.11,25.65a.62.62,0,0,0-.73-.49,3.64,3.64,0,0,0-2.74,2.73.62.62,0,0,0,.47.73l.14,0a.63.63,0,0,0,.6-.48,2.4,2.4,0,0,1,1.77-1.79A.62.62,0,0,0,27.11,25.65Z"/><path class="cls-2" d="M32.16,25.16a.62.62,0,0,0-.24,1.21,2.39,2.39,0,0,1,1.77,1.79.63.63,0,0,0,.61.48l.13,0a.62.62,0,0,0,.47-.73A3.64,3.64,0,0,0,32.16,25.16Z"/><path class="cls-2" d="M24.67,22a.62.62,0,0,0,.87-.11.61.61,0,0,0-.11-.86,1.87,1.87,0,0,0-2.26,0,.62.62,0,0,0-.11.87.6.6,0,0,0,.49.24.58.58,0,0,0,.37-.13A.64.64,0,0,1,24.67,22Z"/><path class="cls-2" d="M33.21,22A.63.63,0,0,1,34,22a.62.62,0,0,0,.38.13.6.6,0,0,0,.49-.24.61.61,0,0,0-.11-.86,1.86,1.86,0,0,0-2.25,0,.62.62,0,0,0-.12.86A.63.63,0,0,0,33.21,22Z"/><path class="cls-2" d="M27.57,22.41h.22l-.33,2.1a1.54,1.54,0,0,0,.35,1.3,1.57,1.57,0,0,0,1.23.57h1.31a.61.61,0,0,0,.62-.61.62.62,0,0,0-.62-.62H29a.38.38,0,0,1-.29-.13.4.4,0,0,1-.08-.31l.37-2.3h1.28a3.34,3.34,0,1,0,0-1.24H27.57a3.34,3.34,0,1,0,0,1.24Zm6-2.72a2.1,2.1,0,1,1-2.1,2.1A2.11,2.11,0,0,1,33.59,19.69ZM22.2,21.79a2.1,2.1,0,1,1,2.1,2.1A2.1,2.1,0,0,1,22.2,21.79Z"/><path class="cls-2" d="M27,17.2a.61.61,0,0,0-.62.61.62.62,0,0,0,.62.62h3.52a.61.61,0,0,0,.61-.62.61.61,0,0,0-.61-.61Z"/><path class="cls-2" d="M26.24,16.76h5.1a.62.62,0,0,0,0-1.24h-5.1a.62.62,0,0,0,0,1.24Z"/></g><path id="Body" class="cls-2" d="M49.56,43.27H47.2c-.12-.63-.22-1.08-.27-1.3a7.92,7.92,0,0,0-1.46-3c-1.59-2.07-3.92-2.64-6-3.14-.4-.1-.85-.17-1.3-.25a15.46,15.46,0,0,1-2.78-.67l-.09,0a5.11,5.11,0,0,1-.74-.37,2,2,0,0,1-.84-.93,6.14,6.14,0,0,1-.32-1,9.7,9.7,0,0,0,5-6.72A3,3,0,0,0,41,22.89a3,3,0,0,0-.59-1.79,2.92,2.92,0,0,0-1-.85,2.69,2.69,0,0,0-.81-.28,9.6,9.6,0,0,0-3.14-6.38,9.44,9.44,0,0,0-2-1.41A9.65,9.65,0,0,0,19.34,20a2.51,2.51,0,0,0-.81.28,2.68,2.68,0,0,0-1,.85,3,3,0,0,0,2,4.71,9.68,9.68,0,0,0,5,6.71,4.63,4.63,0,0,1-.32,1,2,2,0,0,1-.83.92,5.23,5.23,0,0,1-.75.37l-.09,0a14.63,14.63,0,0,1-2.76.66c-.46.09-.91.16-1.31.26-2.07.5-4.39,1.08-6,3.13A7.49,7.49,0,0,0,11,42c-.06.22-.15.67-.27,1.3H8.32a.63.63,0,0,0-.62.61.64.64,0,0,0,.62.63H49.56a.63.63,0,0,0,.62-.63A.61.61,0,0,0,49.56,43.27ZM38.6,24V21.25a1.72,1.72,0,0,1,0,3.26C38.58,24.34,38.6,24.16,38.6,24Zm-20.46-1.1a1.73,1.73,0,0,1,1.17-1.64V24c0,.17,0,.35,0,.53A1.72,1.72,0,0,1,18.14,22.89Zm2.4,1.1V20.73a8.42,8.42,0,0,1,16.83,0V24a8.42,8.42,0,0,1-16.83,0ZM24,35.54a3.2,3.2,0,0,0,1.32-1.49,8.85,8.85,0,0,0,.34-1,9.26,9.26,0,0,0,3.34.62,9.49,9.49,0,0,0,3.31-.6,6.93,6.93,0,0,0,.34,1,3.25,3.25,0,0,0,1.32,1.5l.17.07a7.79,7.79,0,0,1-10.29,0A1,1,0,0,0,24,35.54ZM12,43.27c.1-.49.19-.84.22-1a6.49,6.49,0,0,1,1.22-2.55C14.71,38,16.64,37.5,18.67,37c.38-.09.81-.16,1.25-.24a19,19,0,0,0,2.64-.62,9,9,0,0,0,12.75,0,19,19,0,0,0,2.66.62c.43.08.86.15,1.23.24,2,.49,4,1,5.3,2.69a6.54,6.54,0,0,1,1.22,2.55c0,.18.12.53.22,1Z"/></g><g id="Highlights"><path class="cls-3" d="M22.64,18.13a.58.58,0,0,1-.49-.25.61.61,0,0,1,.12-.86,3.46,3.46,0,0,1,2.48-.55.61.61,0,1,1-.22,1.21A2.15,2.15,0,0,0,23,18,.63.63,0,0,1,22.64,18.13Z"/><path class="cls-3" d="M35.18,18.13a.62.62,0,0,1-.36-.12,2.25,2.25,0,0,0-1.52-.33.61.61,0,0,1-.72-.49.62.62,0,0,1,.5-.72,3.38,3.38,0,0,1,2.47.55.61.61,0,0,1,.13.86A.6.6,0,0,1,35.18,18.13Z"/><path class="cls-3" d="M24.5,12.18a9.5,9.5,0,0,0-2,1.41,5.58,5.58,0,0,0-2.68,1.58,5.13,5.13,0,0,0-1.47,4,7.16,7.16,0,0,0,.2,1.09,2.68,2.68,0,0,0-1,.85,6.72,6.72,0,0,1-.39-1.85,6.34,6.34,0,0,1,1.79-4.93,6.86,6.86,0,0,1,5.22-2.15Z"/><path class="cls-3" d="M40.8,19.25a8.06,8.06,0,0,1-.4,1.85,2.92,2.92,0,0,0-1-.85,5.31,5.31,0,0,0,.19-1.09,5.15,5.15,0,0,0-1.45-4,5.56,5.56,0,0,0-2.69-1.58,9.44,9.44,0,0,0-2-1.41h.36A6.92,6.92,0,0,1,39,14.32,6.38,6.38,0,0,1,40.8,19.25Z"/></g></g></svg>