<svg xmlns="http://www.w3.org/2000/svg" viewBox="0 0 42 42"><defs><style>.cls-1{fill:none;}.cls-2{fill:#fedba6;}.cls-3{fill:#000777;}</style></defs><g id="Background_Squares" data-name="Background Squares"><rect class="cls-1" x="-0.06" width="42" height="42"/><rect class="cls-1" x="-0.06" width="42" height="42"/></g><g id="Icons"><circle class="cls-2" cx="21" cy="21" r="20.3"/><path class="cls-3" d="M34.9,18.25,31.45,11.4H26.67v-2H7.82v2.94H23.73v8.13h9.15l1.25,1.61v4.62H33a4.51,4.51,0,0,0-8.56,0H19.12a4.51,4.51,0,0,0-8.56,0H7.82v2.95h2.76a4.51,4.51,0,0,0,8.51,0h5.37a4.52,4.52,0,0,0,8.52,0h4.08V21.05Zm-8.23-.75V14.34h3l1.59,3.16Z"/><rect class="cls-3" x="4.94" y="19.31" width="9.58" height="2.94"/><rect class="cls-3" x="6.6" y="14.34" width="9.58" height="2.94"/></g></svg>