<svg id="SO_Sleeper_Type_Illustration_Icons" data-name="SO Sleeper Type Illustration Icons" xmlns="http://www.w3.org/2000/svg" viewBox="0 0 58 58"><defs><style>.cls-1{fill:#8cd2d3;}.cls-2{fill:#fff;}.cls-3{fill:#000777;}</style></defs><g id="SideSleepers"><circle class="cls-1" cx="29" cy="29" r="29"/><g id="Pillow_Illustration" data-name="Pillow Illustration"><polygon class="cls-2" points="32.4 35.76 32.46 35.76 31.68 35.86 32.4 35.76"/><path class="cls-2" d="M49.34,16.09V32.72a4.06,4.06,0,0,1-4,4.16H32.51l.61-.08a6.69,6.69,0,0,0,2.78-1h9.49a2.94,2.94,0,0,0,2.83-3V16.09A3,3,0,0,0,45.39,13H12.59a3,3,0,0,0-2.81,3.05V32.72a2.94,2.94,0,0,0,2.81,3h11.8a4.17,4.17,0,0,1,.07,1.12H12.59a4,4,0,0,1-3.92-4.16V16.09a4,4,0,0,1,3.92-4.17h32.8A4.07,4.07,0,0,1,49.34,16.09Z"/></g><g id="Side_Sleeper_Illustration" data-name="Side Sleeper Illustration"><path class="cls-3" d="M47.69,46.58H39.75a24.06,24.06,0,0,0-2.64-3.27,15.22,15.22,0,0,0-1.74-1.5l-.1-.09c-.38-.29-.75-.56-1.13-.83l-.51-.37a2.63,2.63,0,0,1-.56-.47,3,3,0,0,1-.93-1.95,4.42,4.42,0,0,1,0-.86,1.52,1.52,0,0,1,0-.21s0-.07,0-.12l.27,0,.61-.08a6.65,6.65,0,0,0,5.77-6.59v-.93h.8a1.2,1.2,0,0,0,1-1.91l-1.88-2.55a3,3,0,0,1-.5-1,15.29,15.29,0,0,0-.72-2.17,8.59,8.59,0,0,1,1.47.66.51.51,0,0,0,.29.08.56.56,0,0,0,.48-.28.55.55,0,0,0-.2-.76,10.63,10.63,0,0,0-5.84-1.38,7.07,7.07,0,0,0-1.41.29,6.31,6.31,0,0,0-1.36.61.55.55,0,0,0-.19.77.53.53,0,0,0,.76.19,5.49,5.49,0,0,1,1.83-.67h0a6.56,6.56,0,0,1,1.39-.08,7.82,7.82,0,0,1,1.31.16,9.93,9.93,0,0,1,1.09,2.87,4.43,4.43,0,0,0,.7,1.41,1.84,1.84,0,0,0,.17.22l1,1.35.48.64c.06.08.1.15.16.22s0,0,0,.08-.19.16-.28.16H38.34a.57.57,0,0,0-.56.56v1.49a6.51,6.51,0,0,1-.07.76h-.05a2.46,2.46,0,0,1-1.45.18,3.55,3.55,0,0,1-1.08-.3.43.43,0,0,1-.13-.05.56.56,0,0,0-.46,1,.64.64,0,0,0,.19.07,4.38,4.38,0,0,0,1.09.32,3.54,3.54,0,0,0,.82.09,3.88,3.88,0,0,0,.74-.07A5.52,5.52,0,0,1,33,35.69l-.52.07-.78.1a.54.54,0,0,0-.48.6l-.08.33a.13.13,0,0,1,0,.05.21.21,0,0,0,0,.06c0,.15,0,.29-.05.42a6.09,6.09,0,0,0,0,.84A4,4,0,0,0,31.59,40a4.37,4.37,0,0,0,.73.9,5.09,5.09,0,0,0,.65.55l.52.37.47.36a6.22,6.22,0,0,1-2.76.65,6.48,6.48,0,0,1-1.46-.17h0a6.46,6.46,0,0,1-2.07-.94,6.34,6.34,0,0,1-2.41-3.06,5.72,5.72,0,0,0,.34-1.87,4.55,4.55,0,0,0-.11-1.23A4.75,4.75,0,0,0,25,34.18a8.26,8.26,0,0,0-1-1.44c-.15-.19-.32-.39-.47-.59a8.73,8.73,0,0,1-1.32-7.1.55.55,0,0,0-.41-.67.57.57,0,0,0-.64.33.46.46,0,0,0,0,.09A10.14,10.14,0,0,0,21,29.08a9.15,9.15,0,0,0,1.59,3.73l.51.64a8.1,8.1,0,0,1,.9,1.26v0a3.79,3.79,0,0,1,.35,1,4.87,4.87,0,0,1-.5,3.16,11.18,11.18,0,0,1-1,1.32c-.41.51-.85,1-1.29,1.49l-.47.52a12.25,12.25,0,0,0-2.45,4.33h-8.4a.56.56,0,0,0-.56.56.55.55,0,0,0,.56.55H47.69a.55.55,0,0,0,.56-.55A.56.56,0,0,0,47.69,46.58Zm-27.79,0A11,11,0,0,1,22,43l.46-.53c.52-.57,1-1.14,1.52-1.76.2-.26.42-.54.61-.82a7.58,7.58,0,0,0,2.65,2.88,7.36,7.36,0,0,0,4,1.15,7.22,7.22,0,0,0,3.74-1,15.84,15.84,0,0,1,1.37,1.2,22.41,22.41,0,0,1,2.08,2.5Z"/><path class="cls-3" d="M27.84,26.82a.56.56,0,1,0,0-1.11,2.69,2.69,0,1,0,0,5.38.56.56,0,1,0,0-1.12,1.58,1.58,0,0,1,0-3.15Z"/><path class="cls-3" d="M36.53,26.71h0a3.25,3.25,0,0,1-1.12.51,2.86,2.86,0,0,1-.8.12,2.91,2.91,0,0,1-1.82-.64.56.56,0,0,1,.68-.89,1.87,1.87,0,0,0,1.94.24,1.39,1.39,0,0,0,.46-.25.59.59,0,0,1,.65,0h0a.67.67,0,0,1,.14.11A.57.57,0,0,1,36.53,26.71Z"/><path class="cls-3" d="M36.7,24a.55.55,0,0,1-.36.42.41.41,0,0,1-.29,0,4.78,4.78,0,0,0-.88-.09,3.1,3.1,0,0,0-2,.64.55.55,0,0,1-.38.16.53.53,0,0,1-.4-.18.56.56,0,0,1,0-.79,4.07,4.07,0,0,1,2.34-.91,4.71,4.71,0,0,1,1.23,0,1,1,0,0,1,.24,0A.54.54,0,0,1,36.7,24Z"/><path class="cls-3" d="M40.77,20.58a.56.56,0,0,1-.48.25.6.6,0,0,1-.29-.08,9.29,9.29,0,0,0-7.08-1.49,6.65,6.65,0,0,0-1.41.46l0,0a.57.57,0,0,1-.76-.24.36.36,0,0,1-.06-.15.6.6,0,0,1,.29-.61,6.31,6.31,0,0,1,.61-.25h0a10.11,10.11,0,0,1,9,1.32A.55.55,0,0,1,40.77,20.58Z"/><path class="cls-3" d="M30,23.89a.56.56,0,0,0-.56-.56c-2,0-5.89,1.06-6.06,5a.57.57,0,0,0,.53.59h0a.57.57,0,0,0,.56-.54c.17-3.91,4.75-4,4.94-4A.56.56,0,0,0,30,23.89Z"/><path class="cls-3" d="M30,18.13a.58.58,0,0,1-.57.55c-.07,0-7-.05-8.88,5.22a.56.56,0,0,1-.43.36H20l-.19,0a.57.57,0,0,1-.33-.72c2.21-6,9.62-6,10-6A.58.58,0,0,1,30,18,.77.77,0,0,1,30,18.13Z"/><path class="cls-3" d="M29.2,22.67a.56.56,0,0,0,.59-.53.54.54,0,0,0-.52-.58c-.2,0-4.8-.24-6.51,3.52a.55.55,0,0,0,.28.74.46.46,0,0,0,.23.05.57.57,0,0,0,.51-.32C25.17,22.49,29.16,22.67,29.2,22.67Z"/><path class="cls-3" d="M21.66,23.06a.56.56,0,0,0,.13.78.55.55,0,0,0,.32.1.56.56,0,0,0,.46-.23c2.3-3.25,7.13-3.17,7.18-3.16a.58.58,0,0,0,.58-.54.57.57,0,0,0-.54-.58C29.56,19.43,24.31,19.32,21.66,23.06Z"/><path class="cls-3" d="M31.46,17.84a9.74,9.74,0,0,1,7.58.39.56.56,0,0,0,.56-1,10.68,10.68,0,0,0-8.52-.47.56.56,0,0,0-.33.72A.54.54,0,0,0,31.46,17.84Z"/></g></g></svg>