<svg xmlns="http://www.w3.org/2000/svg" viewBox="0 0 14 14"><defs><style>.cls-1{fill:none;}.cls-2{fill:#000777;}</style></defs><g id="Artboard_Boxes" data-name="Artboard Boxes"><rect class="cls-1" width="14" height="14" transform="translate(0 14) rotate(-90)"/></g><g id="UI_Icons" data-name="UI Icons"><path class="cls-2" d="M13,5.58a.6.6,0,0,0-.58-.42H8.73L7.58,1.66A.6.6,0,0,0,7,1.28H6.9l-.08,0a.32.32,0,0,0-.09,0,.2.2,0,0,0-.08,0l-.08.07-.06.05a.71.71,0,0,0-.08.15s0,0,0,0L5.3,5.16H1.61A.6.6,0,0,0,1,5.58a.75.75,0,0,0,0,.2.57.57,0,0,0,.26.49l3,2.15L3.09,11.91h0s0,.07,0,.1,0,.06,0,.09,0,.05,0,.07a.36.36,0,0,0,0,.11s0,0,0,.05l.06.12.1.09,0,0h0l.16.08.1,0,.08,0h0l.1,0h.07A.53.53,0,0,0,4,12.61H4l3-2.16,3,2.16a.6.6,0,0,0,.36.12.65.65,0,0,0,.36-.12.61.61,0,0,0,.22-.68L9.79,8.42l3-2.15A.6.6,0,0,0,13,5.58ZM8.62,8l1,3.05L7,9.2H7V3.15l1,3h3.18Z"/></g></svg>