<svg xmlns="http://www.w3.org/2000/svg" viewBox="0 0 14 14"><defs><style>.cls-1{fill:none;}.cls-2{fill:#000777;}</style></defs><g id="Artboard_Boxes" data-name="Artboard Boxes"><rect class="cls-1" y="0.01" width="14" height="14" transform="translate(-0.01 14.01) rotate(-90)"/></g><g id="UI_Icons" data-name="UI Icons"><path class="cls-2" d="M13,5.58a.6.6,0,0,0-.58-.42H8.73L7.58,1.67a.63.63,0,0,0-1.16,0L5.3,5.16H1.61A.6.6,0,0,0,1,5.58a.61.61,0,0,0,.23.69l3,2.15L3.09,11.91h0A.61.61,0,0,0,4,12.6l3-2.16,3,2.16a.61.61,0,0,0,.94-.68L9.79,8.42l3-2.15A.6.6,0,0,0,13,5.58Z"/></g></svg>