<svg id="SO_Sleeper_Type_Illustration_Icons" data-name="SO Sleeper Type Illustration Icons" xmlns="http://www.w3.org/2000/svg" viewBox="0 0 58 58"><defs><style>.cls-1{fill:#8cd2d3;}.cls-2{fill:#fff;}.cls-3{fill:#000777;}</style></defs><g id="StomachSleepers"><circle class="cls-1" cx="29" cy="29" r="29"/><path id="Pillow_Illustration" data-name="Pillow Illustration" class="cls-2" d="M48.33,16.09V32.71A4.3,4.3,0,0,1,48,34.43a4,4,0,0,1-1.7,1.94,3.62,3.62,0,0,1-1.87.51H32.23a4.19,4.19,0,0,1-.09-.57v-.46l.64-.09H44.41a2.94,2.94,0,0,0,2.81-3V16.09A2.94,2.94,0,0,0,44.41,13H11.61a2.94,2.94,0,0,0-2.83,3.05V32.71a2.94,2.94,0,0,0,2.83,3h13v1.12H11.61a4.07,4.07,0,0,1-3.95-4.17V16.09a4.07,4.07,0,0,1,3.95-4.17h32.8A4,4,0,0,1,48.33,16.09Z"/><g id="Stomach_Sleeper_Illustration" data-name="Stomach Sleeper Illustration"><path class="cls-3" d="M53.44,39.44a13.07,13.07,0,0,1-7.12,7.13h2a.57.57,0,0,1,.56.56.55.55,0,0,1-.56.56H9.61a.56.56,0,0,1-.56-.56.57.57,0,0,1,.56-.56h2c.13-.55.22-1,.26-1.17a7,7,0,0,1,1.31-2.75c1.42-1.86,3.55-2.37,5.4-2.83.38-.09.77-.16,1.2-.24a9.62,9.62,0,0,0,3.27-1,1.78,1.78,0,0,0,.75-.84,5.3,5.3,0,0,0,.33-1,9.64,9.64,0,0,0,0-2.1,4,4,0,0,0-.35-1A7.81,7.81,0,0,0,23,32.42c-.18-.22-.36-.44-.52-.67a9.86,9.86,0,0,1-1.51-8,.57.57,0,0,1,.68-.41A.55.55,0,0,1,22,24a8.7,8.7,0,0,0,1.31,7.08c.17.23.34.43.51.63a9.66,9.66,0,0,1,1,1.42,5.34,5.34,0,0,1,.46,1.31,6.4,6.4,0,0,1-.44,3.79,2.49,2.49,0,0,1-.5.77,17.89,17.89,0,0,0,7.74,0,3,3,0,0,1-.64-.93A6.53,6.53,0,0,1,31,36.37l0-1a.54.54,0,0,1,.48-.57l1.31-.18a5.55,5.55,0,0,0,4.4-3.45,3.32,3.32,0,0,1-.75.08,5.15,5.15,0,0,1-2.09-.48.56.56,0,1,1,.46-1,3.07,3.07,0,0,0,2.66.17h.05a6.65,6.65,0,0,0,.06-.77V27.68a.56.56,0,0,1,.56-.56h1.35l.07-.14L37.7,24.44A4.28,4.28,0,0,1,37,23a10.28,10.28,0,0,0-1.09-2.87,6.34,6.34,0,0,0-4.55.6.56.56,0,1,1-.57-1c3.87-2.29,8.43.37,8.62.48a.56.56,0,0,1,.19.76.55.55,0,0,1-.48.28.58.58,0,0,1-.28-.07,10.21,10.21,0,0,0-1.47-.66,14.76,14.76,0,0,1,.72,2.16,3.26,3.26,0,0,0,.5,1.05l1.87,2.54a1.2,1.2,0,0,1,.11,1.25,1.22,1.22,0,0,1-1.08.67H38.7v.91a6.67,6.67,0,0,1-5.77,6.59l-.16,0-.64.09a4,4,0,0,0,0,.48,4.73,4.73,0,0,0,.34,1.33,3.23,3.23,0,0,0,2.45,1.52,17.06,17.06,0,0,0,3.67.31,16,16,0,0,0,3.57-.35,6.55,6.55,0,0,0,4.11-2.77A4,4,0,0,0,48,34.43a4.59,4.59,0,0,1-.16,1.13c-.69,2.68-3.24,4.17-5.39,4.66a15.77,15.77,0,0,1-3.67.39h-.17a17.53,17.53,0,0,1-3.9-.34,6.61,6.61,0,0,1-1.33-.42,16.93,16.93,0,0,1-5.05.73,17.5,17.5,0,0,1-5.17-.75,12.8,12.8,0,0,1-3.14.86c-.39.07-.78.13-1.13.21-1.84.46-3.59.89-4.78,2.44A5.93,5.93,0,0,0,13,45.66c0,.17-.12.48-.21.91H42.91a16.44,16.44,0,0,0,5.22-2.24,11.65,11.65,0,0,0,4.27-5.28c1.85-4.93-.85-10.33-4.07-13.87V23.55C52.08,27.26,55.64,33.62,53.44,39.44Z"/><path class="cls-3" d="M27.65,25.77a.56.56,0,1,0,0-1.12,2.7,2.7,0,0,0,0,5.39.56.56,0,0,0,0-1.12,1.58,1.58,0,0,1,0-3.15Z"/><path class="cls-3" d="M35.66,24.76a2,2,0,0,1-2.4,0,.56.56,0,0,0-.78.1.55.55,0,0,0,.1.78,2.85,2.85,0,0,0,1.82.64,3.4,3.4,0,0,0,1.94-.63.56.56,0,0,0-.68-.9Z"/><path class="cls-3" d="M36.06,22.26a4.39,4.39,0,0,0-3.8.84.56.56,0,0,0,0,.79.54.54,0,0,0,.41.17.57.57,0,0,0,.38-.15,3.33,3.33,0,0,1,2.82-.55.56.56,0,1,0,.21-1.1Z"/><path class="cls-3" d="M31.27,18.69c.15-.08,3.88-2,8.53,1a.58.58,0,0,0,.3.09.54.54,0,0,0,.47-.26.55.55,0,0,0-.17-.77c-5.22-3.33-9.47-1.15-9.65-1.06a.57.57,0,0,0-.24.76A.57.57,0,0,0,31.27,18.69Z"/><path class="cls-3" d="M29.79,22.84a.56.56,0,0,0-.56-.56c-2,0-5.88,1-6.06,5a.56.56,0,0,0,.54.58h0a.55.55,0,0,0,.56-.53c.17-3.91,4.75-4,4.94-4A.56.56,0,0,0,29.79,22.84Z"/><path class="cls-3" d="M19.63,23.18a.43.43,0,0,0,.19,0,.57.57,0,0,0,.53-.37c1.92-5.27,8.81-5.21,8.87-5.22a.59.59,0,0,0,.57-.55.56.56,0,0,0-.55-.57c-.33,0-7.74-.08-9.94,6A.54.54,0,0,0,19.63,23.18Z"/><path class="cls-3" d="M29,21.62a.57.57,0,0,0,.59-.53.57.57,0,0,0-.53-.59c-.2,0-4.79-.23-6.51,3.53a.56.56,0,0,0,.28.74.59.59,0,0,0,.23.05.55.55,0,0,0,.51-.33C25,21.44,29,21.62,29,21.62Z"/><path class="cls-3" d="M21.46,22a.55.55,0,0,0,.46.88.54.54,0,0,0,.45-.24c2.31-3.24,7.13-3.16,7.19-3.15a.58.58,0,0,0,.57-.54.56.56,0,0,0-.54-.58C29.37,18.38,24.12,18.26,21.46,22Z"/><path class="cls-3" d="M31.27,16.79a9.75,9.75,0,0,1,7.58.39.64.64,0,0,0,.27.07.58.58,0,0,0,.49-.28.57.57,0,0,0-.21-.77,10.68,10.68,0,0,0-8.51-.46.56.56,0,0,0-.34.71A.57.57,0,0,0,31.27,16.79Z"/></g></g></svg>