<svg xmlns="http://www.w3.org/2000/svg" viewBox="0 0 42 42"><defs><style>.cls-1{fill:none;}.cls-2{fill:#fedba6;}.cls-3{fill:#000777;}</style></defs><g id="Background_Squares" data-name="Background Squares"><rect class="cls-1" x="-0.06" width="42" height="42"/></g><g id="Icons"><circle class="cls-2" cx="21" cy="21.01" r="20.3"/><path class="cls-3" d="M18.2,13.49a22.31,22.31,0,0,1-2.63,1.28v5.74A9.73,9.73,0,0,0,21,29.24a9.72,9.72,0,0,0,5.43-8.73V14.77a22.31,22.31,0,0,1-2.63-1.28C21.28,12.11,20.72,12.11,18.2,13.49Zm3,8.83a1.54,1.54,0,0,1-1.07.44h0A1.55,1.55,0,0,1,19,22.29l-1.4-1.46L19,19.5l1.12,1.16L23,17.76l1.35,1.35Z"/><path class="cls-3" d="M30.31,10.86A8.81,8.81,0,0,1,26,9.4a10.16,10.16,0,0,0-5-1.65A10.16,10.16,0,0,0,16,9.4a8.81,8.81,0,0,1-4.28,1.46h-.78v9.65a14.37,14.37,0,0,0,9.84,13.65l.25.09.24-.08a14.38,14.38,0,0,0,9.85-13.66V10.86ZM28,20.51a11.29,11.29,0,0,1-6.67,10.3L21,31l-.31-.14A11.28,11.28,0,0,1,14,20.51h0V13.66a14.94,14.94,0,0,0,3.45-1.54A7.53,7.53,0,0,1,21,10.86a7.53,7.53,0,0,1,3.54,1.26A14.41,14.41,0,0,0,28,13.66Z"/></g></svg>