<svg width="249" height="57" viewBox="0 0 249 57" fill="none" xmlns="http://www.w3.org/2000/svg">
<path d="M48.4198 50.3173H62.6998V34.5173H66.9214L77.2367 50.3173H93.756L81.2014 32.0916C87.1483 29.3381 91.2965 23.7983 91.2965 17.3406C91.2965 8.12944 82.89 0.68838 72.648 0.68838H48.4198V7.14604C43.1703 2.75352 36.269 0 28.56 0C12.8483 0 0 11.3419 0 25.5028C0 39.6638 12.8483 51.0385 28.5967 51.0385C36.3057 51.0385 43.2071 48.2849 48.4565 43.8924V50.3173H48.4198ZM38.7285 34.5173C36.1221 36.8447 32.5246 38.287 28.56 38.287C20.7041 38.287 14.28 32.5505 14.28 25.5356C14.28 18.5207 20.7041 12.7842 28.56 12.7842C32.5246 12.7842 36.0854 14.1937 38.7285 16.5539L48.4198 7.89998V43.1713L38.7285 34.5173ZM62.6998 23.3721V11.8336H70.4822C74.043 11.8336 76.9798 14.456 76.9798 17.6356C76.9798 20.8153 74.043 23.3721 70.4822 23.3721H62.6998Z" fill="#CBCBCB"/>
<path d="M199.368 47.0387L198.303 48.3499C199.918 49.6283 202.084 50.4806 204.874 50.4806C208.141 50.4806 210.748 48.9072 210.748 46.1209C210.748 43.9246 209.536 42.974 205.682 41.7939L204.213 41.335C202.048 40.6794 200.873 40.0566 200.873 38.6143C200.873 36.8441 202.708 36.1558 204.434 36.1558C206.049 36.1558 207.811 36.9425 209.059 37.9259L210.197 36.5491C208.582 35.369 206.783 34.6807 204.434 34.6807C201.46 34.6807 199.037 36.0902 199.037 38.7126C199.037 40.7122 200.396 41.9906 203.663 43.0068L205.315 43.5313C207.774 44.318 208.912 44.7441 208.912 46.1209C208.912 48.1205 206.967 49.0055 204.874 49.0055C202.708 49.0055 200.763 48.186 199.368 47.0387Z" fill="black"/>
<path d="M197.167 49.4641L196.653 48.1201C195.625 48.6774 194.634 48.9396 193.422 48.9396C191.734 48.9396 190.926 48.0218 190.926 46.3828V36.3849H197.02V34.8115H190.926V29.4355H189.017V46.3828C189.017 48.9396 190.449 50.4803 193.312 50.4803C194.744 50.4803 195.992 50.1197 197.167 49.4641Z" fill="black"/>
<path d="M180.169 50.3161V41.1705C180.572 37.7286 183.803 36.0568 187.07 36.4502V34.7128C184.17 34.3195 181.49 35.6307 180.169 37.8925L180.132 34.8112H178.296V50.3489H180.169V50.3161Z" fill="black"/>
<path d="M167.248 34.6484C162.366 34.6484 158.401 38.2215 158.401 42.5812C158.401 46.9409 162.366 50.514 167.248 50.514C172.131 50.514 176.132 46.9409 176.132 42.5812C176.132 38.1887 172.168 34.6484 167.248 34.6484ZM167.248 48.8094C163.394 48.8094 160.274 45.9903 160.274 42.5484C160.274 39.1065 163.394 36.2874 167.248 36.2874C171.14 36.2874 174.26 39.1065 174.26 42.5484C174.26 45.9903 171.14 48.8094 167.248 48.8094Z" fill="black"/>
<path d="M147.901 34.6484C145.001 34.6484 142.468 36.058 141 38.2542V34.8123H139.128V56.6438H141V46.8754C142.468 49.0716 145.075 50.514 148.012 50.514C152.747 50.514 156.675 46.9409 156.675 42.5812C156.675 38.1887 152.71 34.6484 147.901 34.6484ZM147.901 48.8094C144.084 48.8094 141 45.9903 141 42.5484C141 39.1065 144.084 36.2874 147.901 36.2874C151.719 36.2874 154.803 39.1065 154.803 42.5484C154.803 45.9903 151.719 48.8094 147.901 48.8094Z" fill="black"/>
<path d="M136.999 41.8928C136.999 37.5659 133.438 34.6484 129.033 34.6484C124.518 34.6484 120.7 37.8609 120.7 42.5156C120.7 47.1048 124.701 50.514 129.363 50.514C132.153 50.514 134.54 49.465 136.228 47.5638L134.87 46.5476C133.585 48.0882 131.676 48.9077 129.363 48.9077C125.766 48.9077 122.866 46.4165 122.609 42.9746H136.999V41.8928ZM122.646 41.4339C123.16 38.287 125.803 36.1891 128.996 36.1891C132.19 36.1891 134.833 38.287 135.053 41.4339H122.646Z" fill="black"/>
<path d="M113.578 40.9096C117.836 40.3195 120.369 37.566 120.369 34.3536C120.369 30.5183 117.432 27.6992 112.073 27.6992H103.593V50.3502H105.575V41.0407H111.229L118.387 50.3502H120.81L113.578 40.9096ZM105.575 39.3361V29.371H112.036C116.038 29.371 118.35 31.3706 118.35 34.3536C118.35 37.0087 116.331 39.3361 111.963 39.3361H105.575Z" fill="black"/>
<path d="M242.099 23.3718V14.2262C242.503 10.7843 245.733 9.11248 249 9.50584V7.76851C246.1 7.37515 243.42 8.68635 242.099 10.9482L242.062 7.86684H240.227V23.4046H242.099V23.3718Z" fill="black"/>
<path d="M238.06 14.9485C238.06 10.6215 234.499 7.7041 230.094 7.7041C225.579 7.7041 221.761 10.9165 221.761 15.5713C221.761 20.1605 225.762 23.5696 230.425 23.5696C233.214 23.5696 235.601 22.5207 237.289 20.6194L235.931 19.6032C234.646 21.1439 232.737 21.9634 230.425 21.9634C226.827 21.9634 223.927 19.4721 223.67 16.0302H238.06V14.9485ZM223.707 14.4896C224.221 11.3427 226.864 9.24476 230.057 9.24476C233.251 9.24476 235.894 11.3427 236.115 14.4896H223.707Z" fill="black"/>
<path d="M195.625 15.5043C195.698 11.4068 198.011 9.24336 201.241 9.24336C203.958 9.24336 205.756 10.784 205.72 13.5703V23.3715H207.592V15.5043C207.665 11.4068 209.978 9.24336 213.208 9.24336C215.925 9.24336 217.724 10.784 217.687 13.5703V23.3715H219.559V13.5048C219.596 9.86618 217.32 7.66992 213.392 7.66992C210.602 7.66992 208.253 9.14502 207.225 11.3741C206.454 9.07946 204.361 7.66992 201.388 7.66992C198.818 7.66992 196.579 8.98112 195.551 10.9479V7.83382H193.679V23.3715H195.551V15.5043H195.625Z" fill="black"/>
<path d="M189.053 23.3721H190.925V7.86719H189.053V15.7672C188.98 19.8647 186.447 22.0281 182.923 22.0281C180.133 22.0281 178.297 20.4875 178.297 17.7012V7.86719H176.425V17.734C176.425 21.3725 178.738 23.5688 182.739 23.5688C185.602 23.5688 188.025 22.192 189.09 20.1269V23.3721H189.053Z" fill="black"/>
<path d="M162.879 20.0944L161.814 21.4056C163.429 22.684 165.595 23.5363 168.385 23.5363C171.652 23.5363 174.259 21.9628 174.259 19.1765C174.259 16.9803 173.047 16.0297 169.193 14.8496L167.724 14.3907C165.559 13.7351 164.384 13.1122 164.384 11.6699C164.384 9.89981 166.219 9.21143 167.945 9.21143C169.56 9.21143 171.322 9.99815 172.57 10.9815L173.708 9.60479C172.093 8.42471 170.294 7.73633 167.945 7.73633C164.971 7.73633 162.548 9.14587 162.548 11.7683C162.548 13.7678 163.907 15.0463 167.174 16.0624L168.826 16.5869C171.285 17.3736 172.423 17.7998 172.423 19.1765C172.423 21.1761 170.478 22.0612 168.385 22.0612C166.219 22.0612 164.274 21.2417 162.879 20.0944Z" fill="black"/>
<path d="M147.241 15.5043C147.314 11.4068 149.847 9.24336 153.371 9.24336C156.161 9.24336 157.997 10.784 157.997 13.5703V23.3715H159.869V13.5048C159.869 9.86618 157.556 7.66992 153.555 7.66992C150.692 7.66992 148.269 9.04668 147.204 11.1118V7.83382H145.332V23.3715H147.204V15.5043H147.241Z" fill="black"/>
<path d="M134.357 7.7041C129.474 7.7041 125.51 11.2771 125.51 15.6369C125.51 19.9966 129.474 23.5696 134.357 23.5696C139.239 23.5696 143.24 19.9966 143.24 15.6369C143.24 11.2771 139.239 7.7041 134.357 7.7041ZM134.357 21.8651C130.502 21.8651 127.382 19.046 127.382 15.6041C127.382 12.1622 130.502 9.3431 134.357 9.3431C138.248 9.3431 141.368 12.1622 141.368 15.6041C141.368 19.046 138.248 21.8651 134.357 21.8651Z" fill="black"/>
<path d="M122.645 17.9964C120.663 20.291 117.543 21.7334 114.055 21.7334C108.109 21.7334 103.226 17.4064 103.226 12.0633C103.226 6.75291 108.109 2.42595 114.055 2.42595C117.58 2.42595 120.663 3.83549 122.645 6.19565L124.151 4.88445C121.764 2.29483 118.093 0.623047 114.055 0.623047C106.971 0.623047 101.17 5.80229 101.17 12.096C101.17 18.4226 106.971 23.6018 114.055 23.6018C118.13 23.6018 121.728 21.93 124.077 19.3076L122.645 17.9964Z" fill="black"/>
</svg>
