<?xml version="1.0" encoding="UTF-8"?> <svg xmlns="http://www.w3.org/2000/svg" viewBox="0 0 42 42"><defs><style>.cls-1{fill:none;}.cls-2{fill:#7ee4bb;}.cls-3{fill:#000777;}</style></defs><g id="Background_Squares" data-name="Background Squares"><rect class="cls-1" x="-0.06" width="42" height="42"></rect><rect class="cls-1" x="-0.06" width="42" height="42"></rect></g><g id="Icons"><circle class="cls-2" cx="21" cy="21" r="20.3"></circle><path class="cls-3" d="M29.83,16.59v-.76A5.87,5.87,0,0,0,24,10H22.65V7.76h-3.3V10H18a5.86,5.86,0,0,0-1.7,11.47l3,.82v6.46H18a2.56,2.56,0,0,1-2.56-2.55v-.76H12.17v.76A5.87,5.87,0,0,0,18,32h1.31v2.21h3.3V32H24a5.86,5.86,0,0,0,1.7-11.47l-3-.82V13.28H24a2.56,2.56,0,0,1,2.56,2.55v.76Zm-5.1,7.14a2.55,2.55,0,0,1-.77,5H22.65V23.17Zm-5.38-4.9-2.08-.56a2.55,2.55,0,0,1,.77-5h1.31Z"></path></g></svg> 