<svg xmlns="http://www.w3.org/2000/svg" viewBox="0 0 14 14"><defs><style>.cls-1{fill:none;}.cls-2{fill:#FDCC80;}</style></defs><g id="Artboard_Boxes" data-name="Artboard Boxes"><rect class="cls-1" width="14" height="14" transform="translate(0 14) rotate(-90)"/></g><g id="UI_Icons" data-name="UI Icons"><path class="cls-2" d="M10.33,12.72A.6.6,0,0,1,10,12.6L7,10.44,4,12.6a.61.61,0,0,1-.72,0,.6.6,0,0,1-.22-.68h0L4.24,8.42l-3-2.15A.61.61,0,0,1,1,5.58a.6.6,0,0,1,.58-.42H5.3L6.42,1.67a.63.63,0,0,1,1.16,0l1.15,3.5h3.66a.61.61,0,0,1,.35,1.11l-3,2.15,1.12,3.5a.61.61,0,0,1-.22.68A.65.65,0,0,1,10.33,12.72Zm.23-.93ZM2.82,6.16,5.42,8l-1,3.05L7,9.2l2.57,1.89L8.62,8l2.57-1.88H8l-1-3-1,3Z"/></g></svg>