<svg id="SO_Sleeper_Type_Illustration_Icons" data-name="SO Sleeper Type Illustration Icons" xmlns="http://www.w3.org/2000/svg" viewBox="0 0 58 58"><defs><style>.cls-1{fill:#9fcfff;}.cls-2{fill:#000777;}.cls-3{fill:#fff;}</style></defs><g id="Kids"><circle class="cls-1" cx="29" cy="29" r="29"/><g id="Kids_Illustration" data-name="Kids Illustration"><path class="cls-2" d="M26,29.22a1.77,1.77,0,0,0,3,1.29,1.78,1.78,0,0,0,3-1.29.56.56,0,0,0-1.12,0,.66.66,0,0,1-1.32,0v-1l.69-.8a.54.54,0,0,0-.4-.89h-1.7a.54.54,0,0,0-.4.89l.69.8v1a.66.66,0,0,1-1.32,0,.56.56,0,0,0-.56-.56A.55.55,0,0,0,26,29.22Z"/><path class="cls-2" d="M41.75,41.08c-.06-.14-.14-.26-.21-.39C42,35.6,37.08,32.63,35,31.62a7.54,7.54,0,0,0-.38-11.47l3.55-7.81a3,3,0,0,0-1.7-3.91,3,3,0,0,0-3.93,1.73l-2.36,8.33H28.08l-.43,0-2.39-8.39a3,3,0,0,0-3.91-1.68,3,3,0,0,0-1.68,3.94l3.57,7.86A7.55,7.55,0,0,0,23,31.62c-2,1-7,4-6.51,9.07-.07.13-.15.25-.21.39a4.4,4.4,0,0,0,0,3.4l.37.92A4.4,4.4,0,0,0,19,47.81a4.3,4.3,0,0,0,1.72.35,4.54,4.54,0,0,0,1.69-.33,4.41,4.41,0,0,0,1.5-1,9.57,9.57,0,0,0,10.16,0,4.41,4.41,0,0,0,1.5,1,4.54,4.54,0,0,0,1.69.33A4.3,4.3,0,0,0,39,47.81a4.4,4.4,0,0,0,2.4-2.41l.37-.92A4.4,4.4,0,0,0,41.75,41.08ZM40.4,39.33a4.14,4.14,0,0,0-1.07-.65,4.47,4.47,0,0,0-.86-.26,9.08,9.08,0,0,0-1.27-4.1A7.84,7.84,0,0,1,40.4,39.33ZM33.63,10.52a1.84,1.84,0,0,1,1-1,1.91,1.91,0,0,1,2.53,2.43l-3.45,7.6a7.57,7.57,0,0,0-2.39-.9ZM20.69,11.94a1.92,1.92,0,0,1,1.08-2.48,1.9,1.9,0,0,1,2.44,1l2.32,8.17a7.48,7.48,0,0,0-2.36.94Zm.93,14.11a6.47,6.47,0,0,1,6.46-6.46h1.84a6.45,6.45,0,0,1,3.77,11.69.71.71,0,0,0-.14.1,6.38,6.38,0,0,1-3.63,1.13H28.08a6.43,6.43,0,0,1-3.64-1.13.45.45,0,0,0-.13-.1A6.46,6.46,0,0,1,21.62,26.05Zm-.83,8.28a9.12,9.12,0,0,0-1.26,4.1,3.83,3.83,0,0,0-.86.25,4.14,4.14,0,0,0-1.07.65A7.84,7.84,0,0,1,20.79,34.33ZM22,46.79A3.32,3.32,0,0,1,17.65,45l-.38-.91a3.22,3.22,0,0,1-.22-1.68,3.4,3.4,0,0,1,2-2.67,3.29,3.29,0,0,1,1.26-.25,3.34,3.34,0,0,1,3.09,2.07l.37.92A3.32,3.32,0,0,1,22,46.79Zm11.43-.9a8.72,8.72,0,0,1-8.84,0A4.44,4.44,0,0,0,24.85,42l-.38-.91a4.42,4.42,0,0,0-2.4-2.42,4.71,4.71,0,0,0-1.42-.32A8,8,0,0,1,24,32.44a7.56,7.56,0,0,0,4,1.18h1.84a7.56,7.56,0,0,0,4-1.18,8,8,0,0,1,3.38,5.93,4.45,4.45,0,0,0-3.82,2.74l-.38.91A4.44,4.44,0,0,0,33.42,45.89Zm7.31-1.83-.38.91A3.32,3.32,0,0,1,36,46.79a3.32,3.32,0,0,1-1.82-4.34l.37-.92a3.34,3.34,0,0,1,4.35-1.82,3.4,3.4,0,0,1,2,2.44A3.2,3.2,0,0,1,40.73,44.06Z"/><path class="cls-2" d="M24.52,26.44a.56.56,0,0,0,.56-.55.37.37,0,0,1,.37-.38.38.38,0,0,1,.37.38.56.56,0,0,0,1.12,0,1.49,1.49,0,0,0-3,0A.56.56,0,0,0,24.52,26.44Z"/><path class="cls-2" d="M31.62,26.44a.56.56,0,0,0,.56-.55.37.37,0,1,1,.74,0,.56.56,0,0,0,1.12,0,1.49,1.49,0,1,0-3,0A.56.56,0,0,0,31.62,26.44Z"/></g><g id="Highlights"><path class="cls-3" d="M24.8,18.06a.56.56,0,0,1-.52-.37l-2.34-6.31A.56.56,0,1,1,23,11l2.34,6.32A.55.55,0,0,1,25,18,.48.48,0,0,1,24.8,18.06Z"/><path class="cls-3" d="M33.2,18.06a.48.48,0,0,1-.2,0,.55.55,0,0,1-.33-.71L35,11a.56.56,0,1,1,1.05.39l-2.34,6.31A.56.56,0,0,1,33.2,18.06Z"/></g></g></svg>